# xmcd
#
# Track frame offsets: 
#        150
#        12740
#        33632
#        51205
#        64017
#        80670
#        97112
#        117040
#        132137
#        159555
#        170722
#        183790
#        201527
#        214010
#        231335
#        244310
#
# Disc length: 3580 seconds
#
# Revision: 5
# Processed by: cddbd v1.5.2PL0 Copyright (c) Steve Scherf et al.
# Submitted via: ExactAudioCopyFreeDBPlugin 1.0
#
DISCID=eb0dfa10
DTITLE=Phillip Walker - The Blues Collection #77 - Steppin' Up in Clas
DTITLE=s
DYEAR=1996
DGENRE=Blues
TTITLE0=What Can I Do
TTITLE1=Port Arthur Blues
TTITLE2=I'm Tough (Tough As I Want To Be)
TTITLE3=A Lyin' Woman
TTITLE4=Wondering
TTITLE5=Think
TTITLE6=Go Ahead And Take Her
TTITLE7=Not The Same Man
TTITLE8=The Blues And My Guitar
TTITLE9=The Trace
TTITLE10=Trouble In My Home
TTITLE11=Bopp's Dream
TTITLE12=Bad Luck Is Falling
TTITLE13=If My Tears Must Fall
TTITLE14=Steppin' Up In Class
TTITLE15=The Train
EXTD=
EXTT0=
EXTT1=
EXTT2=
EXTT3=
EXTT4=
EXTT5=
EXTT6=
EXTT7=
EXTT8=
EXTT9=
EXTT10=
EXTT11=
EXTT12=
EXTT13=
EXTT14=
EXTT15=
PLAYORDER=
